<mxfile host="Electron" modified="2024-04-15T23:11:08.545Z" agent="Mozilla/5.0 (Windows NT 10.0; Win64; x64) AppleWebKit/537.36 (KHTML, like Gecko) draw.io/24.1.0 Chrome/120.0.6099.109 Electron/28.1.0 Safari/537.36" etag="L56xYzijHHyOGPnUx4SX" version="24.1.0" type="device">
  <diagram name="Page-1" id="Bnf_Oc1RMvNEsvWFGkuN">
    <mxGraphModel dx="1430" dy="577" grid="1" gridSize="10" guides="1" tooltips="1" connect="1" arrows="1" fold="1" page="1" pageScale="1" pageWidth="827" pageHeight="1169" math="0" shadow="0">
      <root>
        <mxCell id="0" />
        <mxCell id="1" parent="0" />
        <mxCell id="N0HCcYQpm4XUc1SyWBMz-1" value="Radar Node" style="text;html=1;align=center;verticalAlign=middle;whiteSpace=wrap;rounded=0;" vertex="1" parent="1">
          <mxGeometry x="130" y="20" width="60" height="30" as="geometry" />
        </mxCell>
        <mxCell id="N0HCcYQpm4XUc1SyWBMz-2" value="" style="endArrow=none;dashed=1;html=1;dashPattern=1 3;strokeWidth=2;rounded=0;" edge="1" parent="1">
          <mxGeometry width="50" height="50" relative="1" as="geometry">
            <mxPoint x="280" y="590" as="sourcePoint" />
            <mxPoint x="280" y="30" as="targetPoint" />
          </mxGeometry>
        </mxCell>
        <mxCell id="N0HCcYQpm4XUc1SyWBMz-7" style="edgeStyle=orthogonalEdgeStyle;rounded=0;orthogonalLoop=1;jettySize=auto;html=1;exitX=0.5;exitY=1;exitDx=0;exitDy=0;entryX=0.5;entryY=0;entryDx=0;entryDy=0;" edge="1" parent="1" source="N0HCcYQpm4XUc1SyWBMz-3" target="N0HCcYQpm4XUc1SyWBMz-4">
          <mxGeometry relative="1" as="geometry" />
        </mxCell>
        <mxCell id="N0HCcYQpm4XUc1SyWBMz-3" value="Setup/ Initialisation" style="shape=process;whiteSpace=wrap;html=1;backgroundOutline=1;" vertex="1" parent="1">
          <mxGeometry x="100" y="80" width="120" height="40" as="geometry" />
        </mxCell>
        <mxCell id="N0HCcYQpm4XUc1SyWBMz-8" style="edgeStyle=orthogonalEdgeStyle;rounded=0;orthogonalLoop=1;jettySize=auto;html=1;exitX=0.5;exitY=1;exitDx=0;exitDy=0;entryX=0.5;entryY=0;entryDx=0;entryDy=0;" edge="1" parent="1" source="N0HCcYQpm4XUc1SyWBMz-4" target="N0HCcYQpm4XUc1SyWBMz-5">
          <mxGeometry relative="1" as="geometry" />
        </mxCell>
        <mxCell id="N0HCcYQpm4XUc1SyWBMz-4" value="Measure distance" style="rounded=0;whiteSpace=wrap;html=1;" vertex="1" parent="1">
          <mxGeometry x="100" y="160" width="120" height="40" as="geometry" />
        </mxCell>
        <mxCell id="N0HCcYQpm4XUc1SyWBMz-9" style="edgeStyle=orthogonalEdgeStyle;rounded=0;orthogonalLoop=1;jettySize=auto;html=1;exitX=0.5;exitY=1;exitDx=0;exitDy=0;entryX=0.5;entryY=0;entryDx=0;entryDy=0;" edge="1" parent="1" source="N0HCcYQpm4XUc1SyWBMz-5" target="N0HCcYQpm4XUc1SyWBMz-6">
          <mxGeometry relative="1" as="geometry" />
        </mxCell>
        <mxCell id="N0HCcYQpm4XUc1SyWBMz-5" value="Convert to Byte array" style="rounded=0;whiteSpace=wrap;html=1;" vertex="1" parent="1">
          <mxGeometry x="100" y="220" width="120" height="40" as="geometry" />
        </mxCell>
        <mxCell id="N0HCcYQpm4XUc1SyWBMz-14" style="edgeStyle=orthogonalEdgeStyle;rounded=0;orthogonalLoop=1;jettySize=auto;html=1;exitX=0.5;exitY=1;exitDx=0;exitDy=0;entryX=0.5;entryY=0;entryDx=0;entryDy=0;" edge="1" parent="1" source="N0HCcYQpm4XUc1SyWBMz-6" target="N0HCcYQpm4XUc1SyWBMz-11">
          <mxGeometry relative="1" as="geometry" />
        </mxCell>
        <mxCell id="N0HCcYQpm4XUc1SyWBMz-6" value="Transmit onto CAN with ID = AA" style="rounded=0;whiteSpace=wrap;html=1;" vertex="1" parent="1">
          <mxGeometry x="100" y="280" width="120" height="40" as="geometry" />
        </mxCell>
        <mxCell id="N0HCcYQpm4XUc1SyWBMz-12" style="edgeStyle=orthogonalEdgeStyle;rounded=0;orthogonalLoop=1;jettySize=auto;html=1;exitX=0;exitY=0.5;exitDx=0;exitDy=0;entryX=0;entryY=0.5;entryDx=0;entryDy=0;" edge="1" parent="1" source="N0HCcYQpm4XUc1SyWBMz-11" target="N0HCcYQpm4XUc1SyWBMz-4">
          <mxGeometry relative="1" as="geometry" />
        </mxCell>
        <mxCell id="N0HCcYQpm4XUc1SyWBMz-17" style="edgeStyle=orthogonalEdgeStyle;rounded=0;orthogonalLoop=1;jettySize=auto;html=1;exitX=0.5;exitY=1;exitDx=0;exitDy=0;entryX=0.5;entryY=0;entryDx=0;entryDy=0;" edge="1" parent="1" source="N0HCcYQpm4XUc1SyWBMz-11" target="N0HCcYQpm4XUc1SyWBMz-16">
          <mxGeometry relative="1" as="geometry" />
        </mxCell>
        <mxCell id="N0HCcYQpm4XUc1SyWBMz-11" value="Received 0x0F ID&lt;div&gt;?&lt;/div&gt;" style="rhombus;whiteSpace=wrap;html=1;" vertex="1" parent="1">
          <mxGeometry x="120" y="340" width="80" height="80" as="geometry" />
        </mxCell>
        <mxCell id="N0HCcYQpm4XUc1SyWBMz-15" value="N" style="text;html=1;align=center;verticalAlign=middle;whiteSpace=wrap;rounded=0;" vertex="1" parent="1">
          <mxGeometry x="90" y="350" width="60" height="30" as="geometry" />
        </mxCell>
        <mxCell id="N0HCcYQpm4XUc1SyWBMz-19" style="edgeStyle=orthogonalEdgeStyle;rounded=0;orthogonalLoop=1;jettySize=auto;html=1;exitX=0.5;exitY=1;exitDx=0;exitDy=0;entryX=0;entryY=0.5;entryDx=0;entryDy=0;" edge="1" parent="1" source="N0HCcYQpm4XUc1SyWBMz-16" target="N0HCcYQpm4XUc1SyWBMz-4">
          <mxGeometry relative="1" as="geometry" />
        </mxCell>
        <mxCell id="N0HCcYQpm4XUc1SyWBMz-16" value="Flash LED" style="rounded=0;whiteSpace=wrap;html=1;" vertex="1" parent="1">
          <mxGeometry x="100" y="440" width="120" height="40" as="geometry" />
        </mxCell>
        <mxCell id="N0HCcYQpm4XUc1SyWBMz-18" value="Y" style="text;html=1;align=center;verticalAlign=middle;whiteSpace=wrap;rounded=0;" vertex="1" parent="1">
          <mxGeometry x="160" y="400" width="60" height="30" as="geometry" />
        </mxCell>
        <mxCell id="N0HCcYQpm4XUc1SyWBMz-27" style="edgeStyle=orthogonalEdgeStyle;rounded=0;orthogonalLoop=1;jettySize=auto;html=1;exitX=0.5;exitY=1;exitDx=0;exitDy=0;entryX=0.5;entryY=0;entryDx=0;entryDy=0;" edge="1" parent="1" source="N0HCcYQpm4XUc1SyWBMz-21" target="N0HCcYQpm4XUc1SyWBMz-23">
          <mxGeometry relative="1" as="geometry" />
        </mxCell>
        <mxCell id="N0HCcYQpm4XUc1SyWBMz-21" value="Setup/ Initialisation" style="shape=process;whiteSpace=wrap;html=1;backgroundOutline=1;" vertex="1" parent="1">
          <mxGeometry x="340" y="80" width="120" height="40" as="geometry" />
        </mxCell>
        <mxCell id="N0HCcYQpm4XUc1SyWBMz-22" value="Gateway Node" style="text;html=1;align=center;verticalAlign=middle;whiteSpace=wrap;rounded=0;" vertex="1" parent="1">
          <mxGeometry x="370" y="20" width="60" height="30" as="geometry" />
        </mxCell>
        <mxCell id="N0HCcYQpm4XUc1SyWBMz-26" style="edgeStyle=orthogonalEdgeStyle;rounded=0;orthogonalLoop=1;jettySize=auto;html=1;exitX=0.5;exitY=1;exitDx=0;exitDy=0;entryX=0.5;entryY=0;entryDx=0;entryDy=0;" edge="1" parent="1" source="N0HCcYQpm4XUc1SyWBMz-23" target="N0HCcYQpm4XUc1SyWBMz-24">
          <mxGeometry relative="1" as="geometry" />
        </mxCell>
        <mxCell id="N0HCcYQpm4XUc1SyWBMz-34" style="edgeStyle=orthogonalEdgeStyle;rounded=0;orthogonalLoop=1;jettySize=auto;html=1;exitX=1;exitY=0.5;exitDx=0;exitDy=0;entryX=1;entryY=0.5;entryDx=0;entryDy=0;" edge="1" parent="1" source="N0HCcYQpm4XUc1SyWBMz-23" target="N0HCcYQpm4XUc1SyWBMz-28">
          <mxGeometry relative="1" as="geometry">
            <Array as="points">
              <mxPoint x="480" y="200" />
              <mxPoint x="480" y="360" />
            </Array>
          </mxGeometry>
        </mxCell>
        <mxCell id="N0HCcYQpm4XUc1SyWBMz-23" value="Is button pressed&lt;div&gt;?&lt;/div&gt;" style="rhombus;whiteSpace=wrap;html=1;" vertex="1" parent="1">
          <mxGeometry x="360" y="160" width="80" height="80" as="geometry" />
        </mxCell>
        <mxCell id="N0HCcYQpm4XUc1SyWBMz-33" style="edgeStyle=orthogonalEdgeStyle;rounded=0;orthogonalLoop=1;jettySize=auto;html=1;exitX=0.5;exitY=1;exitDx=0;exitDy=0;entryX=0.5;entryY=0;entryDx=0;entryDy=0;" edge="1" parent="1" source="N0HCcYQpm4XUc1SyWBMz-24" target="N0HCcYQpm4XUc1SyWBMz-28">
          <mxGeometry relative="1" as="geometry" />
        </mxCell>
        <mxCell id="N0HCcYQpm4XUc1SyWBMz-24" value="Transmit 0x0F ID" style="rounded=0;whiteSpace=wrap;html=1;" vertex="1" parent="1">
          <mxGeometry x="340" y="260" width="120" height="40" as="geometry" />
        </mxCell>
        <mxCell id="N0HCcYQpm4XUc1SyWBMz-30" style="edgeStyle=orthogonalEdgeStyle;rounded=0;orthogonalLoop=1;jettySize=auto;html=1;exitX=0;exitY=0.5;exitDx=0;exitDy=0;entryX=0;entryY=0.5;entryDx=0;entryDy=0;" edge="1" parent="1" source="N0HCcYQpm4XUc1SyWBMz-28" target="N0HCcYQpm4XUc1SyWBMz-23">
          <mxGeometry relative="1" as="geometry">
            <Array as="points">
              <mxPoint x="320" y="360" />
              <mxPoint x="320" y="200" />
            </Array>
          </mxGeometry>
        </mxCell>
        <mxCell id="N0HCcYQpm4XUc1SyWBMz-38" style="edgeStyle=orthogonalEdgeStyle;rounded=0;orthogonalLoop=1;jettySize=auto;html=1;exitX=0.5;exitY=1;exitDx=0;exitDy=0;entryX=0.5;entryY=0;entryDx=0;entryDy=0;" edge="1" parent="1" source="N0HCcYQpm4XUc1SyWBMz-28" target="N0HCcYQpm4XUc1SyWBMz-36">
          <mxGeometry relative="1" as="geometry" />
        </mxCell>
        <mxCell id="N0HCcYQpm4XUc1SyWBMz-28" value="Received 0xAA&lt;div&gt;?&lt;/div&gt;" style="rhombus;whiteSpace=wrap;html=1;" vertex="1" parent="1">
          <mxGeometry x="360" y="320" width="80" height="80" as="geometry" />
        </mxCell>
        <mxCell id="N0HCcYQpm4XUc1SyWBMz-31" value="N" style="text;html=1;align=center;verticalAlign=middle;whiteSpace=wrap;rounded=0;" vertex="1" parent="1">
          <mxGeometry x="310" y="330" width="60" height="30" as="geometry" />
        </mxCell>
        <mxCell id="N0HCcYQpm4XUc1SyWBMz-32" value="Y" style="text;html=1;align=center;verticalAlign=middle;whiteSpace=wrap;rounded=0;" vertex="1" parent="1">
          <mxGeometry x="384" y="230" width="60" height="30" as="geometry" />
        </mxCell>
        <mxCell id="N0HCcYQpm4XUc1SyWBMz-35" value="N" style="text;html=1;align=center;verticalAlign=middle;whiteSpace=wrap;rounded=0;" vertex="1" parent="1">
          <mxGeometry x="420" y="170" width="60" height="30" as="geometry" />
        </mxCell>
        <mxCell id="N0HCcYQpm4XUc1SyWBMz-39" style="edgeStyle=orthogonalEdgeStyle;rounded=0;orthogonalLoop=1;jettySize=auto;html=1;exitX=0.5;exitY=1;exitDx=0;exitDy=0;entryX=0.5;entryY=0;entryDx=0;entryDy=0;" edge="1" parent="1" source="N0HCcYQpm4XUc1SyWBMz-36" target="N0HCcYQpm4XUc1SyWBMz-37">
          <mxGeometry relative="1" as="geometry" />
        </mxCell>
        <mxCell id="N0HCcYQpm4XUc1SyWBMz-36" value="Process byte array into float" style="rounded=0;whiteSpace=wrap;html=1;" vertex="1" parent="1">
          <mxGeometry x="340" y="420" width="120" height="40" as="geometry" />
        </mxCell>
        <mxCell id="N0HCcYQpm4XUc1SyWBMz-40" style="edgeStyle=orthogonalEdgeStyle;rounded=0;orthogonalLoop=1;jettySize=auto;html=1;exitX=0.5;exitY=1;exitDx=0;exitDy=0;entryX=0;entryY=0.5;entryDx=0;entryDy=0;" edge="1" parent="1" source="N0HCcYQpm4XUc1SyWBMz-37" target="N0HCcYQpm4XUc1SyWBMz-23">
          <mxGeometry relative="1" as="geometry">
            <Array as="points">
              <mxPoint x="400" y="540" />
              <mxPoint x="320" y="540" />
              <mxPoint x="320" y="200" />
            </Array>
          </mxGeometry>
        </mxCell>
        <mxCell id="N0HCcYQpm4XUc1SyWBMz-37" value="Output distance over COM" style="rounded=0;whiteSpace=wrap;html=1;" vertex="1" parent="1">
          <mxGeometry x="340" y="480" width="120" height="40" as="geometry" />
        </mxCell>
        <mxCell id="N0HCcYQpm4XUc1SyWBMz-41" value="" style="endArrow=none;dashed=1;html=1;dashPattern=1 3;strokeWidth=2;rounded=0;" edge="1" parent="1">
          <mxGeometry width="50" height="50" relative="1" as="geometry">
            <mxPoint x="520" y="585" as="sourcePoint" />
            <mxPoint x="520" y="25" as="targetPoint" />
          </mxGeometry>
        </mxCell>
        <mxCell id="N0HCcYQpm4XUc1SyWBMz-59" style="edgeStyle=orthogonalEdgeStyle;rounded=0;orthogonalLoop=1;jettySize=auto;html=1;exitX=0.5;exitY=1;exitDx=0;exitDy=0;" edge="1" parent="1" source="N0HCcYQpm4XUc1SyWBMz-42" target="N0HCcYQpm4XUc1SyWBMz-46">
          <mxGeometry relative="1" as="geometry" />
        </mxCell>
        <mxCell id="N0HCcYQpm4XUc1SyWBMz-42" value="Setup/ Initialisation" style="shape=process;whiteSpace=wrap;html=1;backgroundOutline=1;" vertex="1" parent="1">
          <mxGeometry x="580" y="80" width="120" height="40" as="geometry" />
        </mxCell>
        <mxCell id="N0HCcYQpm4XUc1SyWBMz-43" value="Dash Node" style="text;html=1;align=center;verticalAlign=middle;whiteSpace=wrap;rounded=0;" vertex="1" parent="1">
          <mxGeometry x="610" y="20" width="60" height="30" as="geometry" />
        </mxCell>
        <mxCell id="N0HCcYQpm4XUc1SyWBMz-44" style="edgeStyle=orthogonalEdgeStyle;rounded=0;orthogonalLoop=1;jettySize=auto;html=1;exitX=0.5;exitY=1;exitDx=0;exitDy=0;entryX=0.5;entryY=0;entryDx=0;entryDy=0;" edge="1" parent="1" source="N0HCcYQpm4XUc1SyWBMz-46" target="N0HCcYQpm4XUc1SyWBMz-48">
          <mxGeometry relative="1" as="geometry" />
        </mxCell>
        <mxCell id="N0HCcYQpm4XUc1SyWBMz-45" style="edgeStyle=orthogonalEdgeStyle;rounded=0;orthogonalLoop=1;jettySize=auto;html=1;exitX=1;exitY=0.5;exitDx=0;exitDy=0;entryX=1;entryY=0.5;entryDx=0;entryDy=0;" edge="1" parent="1" source="N0HCcYQpm4XUc1SyWBMz-46" target="N0HCcYQpm4XUc1SyWBMz-51">
          <mxGeometry relative="1" as="geometry">
            <Array as="points">
              <mxPoint x="720" y="200" />
              <mxPoint x="720" y="360" />
            </Array>
          </mxGeometry>
        </mxCell>
        <mxCell id="N0HCcYQpm4XUc1SyWBMz-46" value="Is button pressed&lt;div&gt;?&lt;/div&gt;" style="rhombus;whiteSpace=wrap;html=1;" vertex="1" parent="1">
          <mxGeometry x="600" y="160" width="80" height="80" as="geometry" />
        </mxCell>
        <mxCell id="N0HCcYQpm4XUc1SyWBMz-47" style="edgeStyle=orthogonalEdgeStyle;rounded=0;orthogonalLoop=1;jettySize=auto;html=1;exitX=0.5;exitY=1;exitDx=0;exitDy=0;entryX=0.5;entryY=0;entryDx=0;entryDy=0;" edge="1" parent="1" source="N0HCcYQpm4XUc1SyWBMz-48" target="N0HCcYQpm4XUc1SyWBMz-51">
          <mxGeometry relative="1" as="geometry" />
        </mxCell>
        <mxCell id="N0HCcYQpm4XUc1SyWBMz-48" value="Transmit 0x0F ID" style="rounded=0;whiteSpace=wrap;html=1;" vertex="1" parent="1">
          <mxGeometry x="580" y="260" width="120" height="40" as="geometry" />
        </mxCell>
        <mxCell id="N0HCcYQpm4XUc1SyWBMz-49" style="edgeStyle=orthogonalEdgeStyle;rounded=0;orthogonalLoop=1;jettySize=auto;html=1;exitX=0;exitY=0.5;exitDx=0;exitDy=0;entryX=0;entryY=0.5;entryDx=0;entryDy=0;" edge="1" parent="1" source="N0HCcYQpm4XUc1SyWBMz-51" target="N0HCcYQpm4XUc1SyWBMz-46">
          <mxGeometry relative="1" as="geometry">
            <Array as="points">
              <mxPoint x="560" y="360" />
              <mxPoint x="560" y="200" />
            </Array>
          </mxGeometry>
        </mxCell>
        <mxCell id="N0HCcYQpm4XUc1SyWBMz-50" style="edgeStyle=orthogonalEdgeStyle;rounded=0;orthogonalLoop=1;jettySize=auto;html=1;exitX=0.5;exitY=1;exitDx=0;exitDy=0;entryX=0.5;entryY=0;entryDx=0;entryDy=0;" edge="1" parent="1" source="N0HCcYQpm4XUc1SyWBMz-51" target="N0HCcYQpm4XUc1SyWBMz-56">
          <mxGeometry relative="1" as="geometry" />
        </mxCell>
        <mxCell id="N0HCcYQpm4XUc1SyWBMz-51" value="Received 0xAA&lt;div&gt;?&lt;/div&gt;" style="rhombus;whiteSpace=wrap;html=1;" vertex="1" parent="1">
          <mxGeometry x="600" y="320" width="80" height="80" as="geometry" />
        </mxCell>
        <mxCell id="N0HCcYQpm4XUc1SyWBMz-52" value="N" style="text;html=1;align=center;verticalAlign=middle;whiteSpace=wrap;rounded=0;" vertex="1" parent="1">
          <mxGeometry x="550" y="330" width="60" height="30" as="geometry" />
        </mxCell>
        <mxCell id="N0HCcYQpm4XUc1SyWBMz-53" value="Y" style="text;html=1;align=center;verticalAlign=middle;whiteSpace=wrap;rounded=0;" vertex="1" parent="1">
          <mxGeometry x="624" y="230" width="60" height="30" as="geometry" />
        </mxCell>
        <mxCell id="N0HCcYQpm4XUc1SyWBMz-54" value="N" style="text;html=1;align=center;verticalAlign=middle;whiteSpace=wrap;rounded=0;" vertex="1" parent="1">
          <mxGeometry x="660" y="170" width="60" height="30" as="geometry" />
        </mxCell>
        <mxCell id="N0HCcYQpm4XUc1SyWBMz-55" style="edgeStyle=orthogonalEdgeStyle;rounded=0;orthogonalLoop=1;jettySize=auto;html=1;exitX=0.5;exitY=1;exitDx=0;exitDy=0;entryX=0.5;entryY=0;entryDx=0;entryDy=0;" edge="1" parent="1" source="N0HCcYQpm4XUc1SyWBMz-56" target="N0HCcYQpm4XUc1SyWBMz-58">
          <mxGeometry relative="1" as="geometry" />
        </mxCell>
        <mxCell id="N0HCcYQpm4XUc1SyWBMz-56" value="Process byte array into float" style="rounded=0;whiteSpace=wrap;html=1;" vertex="1" parent="1">
          <mxGeometry x="580" y="420" width="120" height="40" as="geometry" />
        </mxCell>
        <mxCell id="N0HCcYQpm4XUc1SyWBMz-57" style="edgeStyle=orthogonalEdgeStyle;rounded=0;orthogonalLoop=1;jettySize=auto;html=1;exitX=0.5;exitY=1;exitDx=0;exitDy=0;entryX=0;entryY=0.5;entryDx=0;entryDy=0;" edge="1" parent="1" source="N0HCcYQpm4XUc1SyWBMz-58" target="N0HCcYQpm4XUc1SyWBMz-46">
          <mxGeometry relative="1" as="geometry">
            <Array as="points">
              <mxPoint x="640" y="540" />
              <mxPoint x="560" y="540" />
              <mxPoint x="560" y="200" />
            </Array>
          </mxGeometry>
        </mxCell>
        <mxCell id="N0HCcYQpm4XUc1SyWBMz-58" value="Output distance onto LCD screen" style="rounded=0;whiteSpace=wrap;html=1;" vertex="1" parent="1">
          <mxGeometry x="580" y="480" width="120" height="40" as="geometry" />
        </mxCell>
      </root>
    </mxGraphModel>
  </diagram>
</mxfile>
